<svg xmlns="http://www.w3.org/2000/svg" width="187.1" height="39" viewBox="0 0 187.1 39"><g fill="#FFF"><path d="M43.3.1v19.2h42.1V.1h53.7v19.3h42.1V8.8h5.9v16.5h-54v-5.6H91.3v5.6H37.4V.1h5.9zm89.8 13.5V6.1H91.3v7.5h41.8zm48.1-7.8V0h5.9v5.8h-5.9zM43.4 30.7v4.7c0 1.2-.2 1.8-.7 2.2-.5.5-1.3.7-2.2.7-1.1 0-1.8-.2-2.3-.7-.5-.5-.7-1.1-.7-2.2v-4.7h1.9v4.7c0 .6.1.9.2 1.1.2.3.6.4 1.1.4.5 0 .9-.1 1.1-.4.2-.2.2-.5.2-1.1v-4.7h1.4zm7 0v7.5h-1.5l-2.9-5v5.1h-1.3v-7.5h1.9l2.5 4.4v-4.4c0-.1 1.3-.1 1.3-.1zm1.5 7.5v-7.5h1.7v7.5h-1.7zm8.7-7.5l-2.2 7.5h-1.9l-2.2-7.5h1.8l1.5 5.3 1.5-5.3h1.5zm5.9 1.4H63v1.5h2.8V35H63v1.6h3.5v1.5h-5.3v-7.5h5.3v1.5zm2.8 3.1v3h-1.7v-7.5h3.3c1 0 1.5.1 1.9.5.5.4.8 1.1.8 1.7 0 .6-.2 1.1-.6 1.5-.2.2-.3.3-.7.4l1.4 3.3h-1.9l-1.1-3-1.4.1zm0-3.1V34h1.1c.6 0 .7 0 .9-.2.3-.2.4-.5.4-.8 0-.3-.1-.6-.3-.7-.2-.2-.4-.2-1.1-.2h-1zm10.7.3l-1.5.5c-.3-.7-.6-.9-1.3-.9-.6 0-1 .2-1 .7 0 .4.3.6 1.1.8 1.2.2 1.6.4 2 .7.6.4.9 1 .9 1.7 0 .8-.4 1.6-1.1 2-.5.3-1.2.5-2 .5-.9 0-1.6-.2-2.1-.6-.5-.4-.7-.7-.9-1.4l1.6-.4c.2.7.7 1 1.5 1 .7 0 1.2-.3 1.2-.8 0-.4-.3-.6-1.3-.8-.8-.2-1.3-.4-1.7-.6-.6-.4-.9-1-.9-1.7s.2-1.3.8-1.7c.5-.5 1.1-.6 1.9-.6.8 0 1.4.2 1.9.6.4.1.6.4.9 1zm1.3 5.8v-7.5H83v7.5h-1.7zm3.2-7.5h2.3c1.4 0 2.2.3 2.9 1 .6.7.9 1.6.9 2.7 0 1-.3 2-.9 2.7-.6.7-1.5 1.1-2.6 1.1h-2.5l-.1-7.5zm1.7 1.4v4.7h.7c.6 0 1-.2 1.3-.6.4-.5.5-1.1.5-1.8s-.2-1.3-.5-1.7c-.3-.4-.7-.6-1.3-.6h-.7zm9.1-1.4l2.3 7.5h-1.9l-.5-1.5h-2.4l-.5 1.5h-1.5l2.4-7.5h2.1zm-2 4.6h1.6l-.8-2.6-.8 2.6zm5.1-4.6h2.2c1.4 0 2.2.3 2.9 1 .6.7.9 1.6.9 2.7 0 1-.3 2-.9 2.7-.6.7-1.5 1.1-2.6 1.1h-2.5v-7.5zm1.7 1.4v4.7h.7c.6 0 1-.2 1.3-.6.3-.5.5-1.1.5-1.8s-.2-1.3-.5-1.7c-.3-.4-.7-.6-1.3-.6h-.7zm11.9-1.4l2.3 7.5h-1.9l-.4-1.5h-2.4l-.5 1.5h-1.5l2.4-7.5h2zm-2 4.6h1.6l-.8-2.6-.8 2.6zm5.1-4.6h2.3c1.4 0 2.2.3 2.9 1 .6.7.9 1.6.9 2.7 0 1-.3 2-.9 2.7-.6.7-1.5 1.1-2.6 1.1h-2.5l-.1-7.5zm1.7 1.4v4.7h.7c.6 0 1-.2 1.3-.6.3-.5.5-1.1.5-1.8s-.2-1.3-.5-1.7c-.3-.4-.7-.6-1.3-.6h-.7zm8.4-1.5c.9 0 1.7.4 2.2 1.1.5.7.8 1.7.8 2.8 0 1-.3 2-.8 2.8-.5.7-1.4 1.1-2.4 1.1s-1.7-.4-2.3-1.1c-.6-.7-.9-1.7-.9-2.8 0-1.1.3-2.1.8-2.7.7-.8 1.5-1.2 2.6-1.2zm-.1 1.4c-.9 0-1.3.9-1.3 2.5s.5 2.4 1.4 2.4c.9 0 1.3-.8 1.3-2.4 0-.8-.1-1.4-.3-1.8-.3-.5-.6-.7-1.1-.7zm6 4.7h2.9v1.5h-4.7v-7.5h1.8v6zm9.1-4.5h-3.5v1.7h2.7v1.4h-2.7v2.9H135v-7.5h5.2v1.5zm3.8-1.6c.9 0 1.7.4 2.2 1.1.5.7.8 1.7.8 2.8 0 1-.3 2-.8 2.8-.5.7-1.4 1.1-2.4 1.1s-1.7-.4-2.3-1.1c-.6-.7-.9-1.7-.9-2.8 0-1.1.3-2.1.8-2.7.7-.8 1.5-1.2 2.6-1.2zm-.1 1.4c-.9 0-1.4.9-1.4 2.5s.5 2.4 1.4 2.4 1.3-.8 1.3-2.4c0-.8-.1-1.4-.3-1.8-.2-.5-.5-.7-1-.7zm7.1 6.2v-7.5h1.7v7.5H151zm3.2-7.5h3.4c.9 0 1.3.1 1.8.5.4.4.7.9.7 1.4 0 .8-.4 1.4-1.3 1.7.5.1.7.2.9.5.4.3.6.8.6 1.4 0 .6-.3 1.1-.7 1.5-.5.4-1.1.5-2 .5h-3.4v-7.5zm1.7 1.4v1.6h1.3c.4 0 .6 0 .8-.2.2-.2.3-.4.3-.7 0-.2-.1-.5-.2-.6-.2-.2-.3-.2-1-.2 0 .1-1.2.1-1.2.1zm0 2.9v1.8h1.3c.5 0 .7-.1.9-.2.2-.2.4-.5.4-.8 0-.6-.4-.9-1.2-.9h-1.4zm9.1-4.3l2.3 7.5h-1.9l-.5-1.5h-2.4l-.5 1.5h-1.5l2.4-7.5h2.1zm-1.9 4.6h1.6l-.8-2.6-.8 2.6zm2.4-7l.3 1-2.4.8-.3-.6 2.4-1.2zm8.3 2.4v7.5h-1.5l-2.9-5v5.1H168v-7.5h1.9l2.5 4.4v-4.4l1.4-.1zm-1.3-2.2l.5.6c-.4.5-.8.7-1.3.7-.3 0-.4 0-.9-.3-.2-.1-.4-.1-.5-.1-.2 0-.5.1-.7.4l-.5-.6c.4-.4.8-.6 1.2-.6.3 0 .5 0 .9.2.2.1.4.1.5.1.3.1.6-.1.8-.4zm8.1 3.6h-3.5v1.5h2.8V35h-2.8v1.6h3.5v1.5h-5.3v-7.5h5.3v1.5zm6.3-.1l-3.7 4.8h3.9v1.4h-6V37l3.7-4.8h-3.5v-1.4h5.6V32zM27.3 30.3c-.3 0-.9.2-1.7.7 0 0-.6.4-1 .4h-.2l1.1 1.6c1.1-.8 1.7-1.4 1.7-1.4s.5-.5.5-.9v-.2c-.1-.1-.2-.2-.4-.2zm-26 .4l.2-.3c.1-.1.3-.2.5-.2s.4 0 .5.1c.4.1.8.4 1.7.6h.3c.2 0 .3-.1.3-.2v-.2l-.1-.1c-.2-.2-.5-.5-1.1-1-1-.9-1.2-1.7-1.2-2.1-.3.3-.4.8-.4 1.3 0 .6.1 1.2.1 1.2v.1H1.8c-.6-.2-1.3-.8-1.5-1.1 0 1 1 1.9 1 1.9zm23.3.6c.4 0 .9-.4.9-.4.8-.4 1.3-.7 1.7-.7h.2l.5.4c.5-.5.7-1.3.7-1.7-.4.5-1.5.8-1.5.8H27v-.4c0-1-.3-1.5-.5-1.8v.1l.1.4c-.2.4-1 1.3-1.4 1.7-.3.3-1 .9-1 1.2l.1.2.3.2zm-16.2 5l-.3.3-.1.1h.1l.3.1h.1v-.1c-.1 0-.1-.4-.1-.4zM4.2 31c-.8-.2-1.3-.5-1.6-.6l-.5-.1c-.3 0-.5.1-.5.2s.1.3.3.5l.3.4s.5.5 1.4 1.1L4.7 31h-.5zm21.4 2.8c-.3.2-.2.5 0 .7.2.2.5.5.8.3.3-.2.2-.5 0-.8-.2-.3-.5-.3-.8-.2zm-11.4 3.9h.1l.2-.2c0-.2-.1-.3-.3-.3l-.1.2v.2l.1.1zm5.6-.5l-.1.2.1.2c0 .2.1.2.3.2.2 0 .3-.2.2-.4-.1-.2-.2-.3-.5-.2zm-3.1-.1l-.1.1v.4h.1c.3 0 .3-.1.3-.3.1-.1-.1-.2-.3-.2zM5.3 35l-.1-.5H5l-.2.4.1.1c.3.2.3.1.4 0zm8.9 2.8l-.1.2v.2c0 .2.1.2.2.2.2 0 .3-.1.3-.3 0-.1 0-.2-.4-.3zm5.5-.7h.1l.1-.3c0-.2-.2-.3-.3-.2l-.1.2.1.2.1.1zm-1.4.1l-.1.4v.1h.5v-.1l-.4-.4zM2 31.5l-.3-.4c-.2-.2-.3-.4-.3-.6l-.2.2s-.4.3-1.1 1.2c0 .3-.1.5-.1.7 0 .5.4.9.4.9s1.6 1.4 4.1 2.8c2.6 1.4 6.2 2.7 10.3 2.7 8.2 0 13.4-4.9 14.1-5.6.4-.4.4-.7.4-.9 0-.2-.1-.4-.1-.4l-1.4-1.3-.1-.1v.1c0 .5-.6.9-.6.9S24 34.8 18.9 36h.1c-.2.1-.5.1-.7.1h-.1c-.3.1-.5.1-.8.1h-.1c-.2 0-.4.1-.6.1h-3.2c-.2 0-.4 0-.6-.1h-.2c-.3 0-.5-.1-.8-.1h-.1c-.2 0-.5-.1-.7-.1h-.2c-5.3-1.1-8.8-4.5-8.9-4.5zm.2 2.8v-.1l.3-1.3v-.2h.1l.2.1.1.2v.1h-.2l-.1.3-.1.6.6-.3.2-.2-.1-.3h.1l.1.1.1.1v.1h-.2l-1.1.8zm1.5.9c-.2-.2-.3-.2-.4-.3l-.3-.1c0-.1.1.1.2-.1l.5-.8-.1-.3h.1c.1 0 .2.1.4.3l.4.2v.1l-.1.2-.1.1c-.1-.1.2-.2-.2-.4-.1-.2-.1-.2-.2-.1l-.1.2v.1l.1.1h.3v.1l-.2.3-.1.1-.1-.3-.1-.1-.1.1-.1.2v.2c.4.2.5 0 .6 0l-.4.2zm1.5.7l.1.1H5l-.1-.3v-.4l-.1-.2h-.1l-.2.3c-.1.2.1.2.1.3h-.1l-.1-.1-.3-.2v-.1c0-.1.1.1.3-.1l.4-.8c.1-.2-.1-.2-.1-.3l.2.1.4.2c.4.2.3.5.2.6l-.2.2h-.1c-.1.1 0 .4 0 .7zm1.1-.6l-.4.8c-.1.3.1.3.1.3h-.1l-.3-.1-.2-.1.2-.1.4-.9v-.3h.1l.1.1.2.1.1.1s-.1-.1-.2.1zm1 .5l-.4.8c-.1.2.2.3.1.3l-.3-.1-.3-.1v-.1c0-.1.2.1.3-.1l.4-.9-.1-.1-.2-.1c-.2-.1-.3.2-.3.1v-.1l.1-.2h.1c.2.1.3.1.6.3.3.1.4.2.6.2l-.1.3-.1.1c-.1 0 .1-.2-.1-.3l-.1-.1c-.1 0-.2.1-.2.1zm1.5 1.8l-.3-.1-.2-.1.2-.1v-.1c0-.2 0-.2-.1-.2l-.4-.2-.2.1v.1l.2.2h-.1l-.2-.1-.2-.1h.1l.9-1h.1v.1l.1 1.3.1.2zm1.4-1v.3l-.1.1s0-.4-.3-.5l-.3.1c0 .1.1.2.3.4.2.2.3.3.2.5-.1.3-.3.4-.5.3l-.3-.2v-.5c0 .2.1.4.3.5l.3-.2c.1-.2-.1-.2-.3-.5-.1-.1-.2-.2-.2-.4.1-.2.3-.3.5-.3l.3.2.1.2c0-.1 0 0 0 0zm.9.8l-.2.1-.1-.2.2-.1.1.2zm1.3 1c-.3-.1-.4-.1-.5-.1h-.3c0-.1.2 0 .2-.2l.1-.9-.2-.2H12.4l-.2.1-.2.9.1.2c.5.1.5-.2.6-.2 0 .1-.3.4-.3.4zm1-1.1l-.1 1c0 .2.2.2.2.2H12.9c0-.1.1 0 .2-.2l.1-1c0-.2-.2-.2-.2-.2H13.7c-.2.1-.3 0-.3.2zm.9 1.2H13.5c0-.1.2 0 .2-.2v-.9c0-.3-.2-.2-.2-.3h.6c.5 0 .5.3.5.4l-.2.3c.2.1.3.2.3.4.2.2 0 .4-.4.3zm1.6 0h-.8c0-.1.1 0 .1-.2v-.9l-.2-.2h1V37.5c-.1 0 0-.2-.3-.2-.2 0-.3 0-.3.2v.3l.1.1h.1l.2-.2v.5c-.1 0 0-.2-.2-.2h-.2v.3l.2.2c.5 0 .5-.3.5-.3l-.2.3zm1.6-.1l-.3-.2-.2-.3-.2-.1-.1.1v.4c0 .2.2.1.2.2H16.2c0-.1.2 0 .1-.3l-.1-.9c0-.2-.2-.1-.2-.2h.2l.4-.1c.4-.1.5.2.5.3l-.1.3-.1.1s.2.3.4.5h.2c.2 0 0 .2 0 .2zm1.7-.3h-.5l.1-.2-.1-.1-.2-.1-.4.1-.1.2v.2l.2.1h-.6l.1-.2.3-1.3v-.1l.1.1.8 1.1.3.2zm.9-.3c-.3.1-.4.1-.5.1h-.2c0-.1.2-.1.1-.2l-.2-.9c-.1-.3-.2-.1-.3-.2h.1l.5-.1c.5-.1.6.2.6.2l-.1.3c.2 0 .4.1.4.3 0 .2-.1.4-.4.5zm1.2-.4l-.3.1-.2.1.1-.2-.3-.9-.3-.1.2-.1.3-.1h.1l-.1.2.3.9c.1.2.3 0 .2.1.1 0 0 0 0 0zm1.1-.4l-.3.1-.3.1h-.1c0-.1.2-.1.1-.3l-.3-.9-.1.1c-.2.1-.1.3-.2.3l-.1-.3V36c.2-.1.3-.1.6-.2s.4-.2.6-.2h.1l.1.2v.1c-.1 0-.1-.2-.3-.1l-.2.1-.1.1.3.9c.1.2.3 0 .2.1zm.9-1l-.2-.1.1-.2.2.1-.1.2zm2.2-.5l-1.4-.4.3.6c.2.3.3.1.4.2l-.1.1-.2.1-.1.1h-.1l.1-.3-.4-.7c-.2-.3-.3-.1-.4-.2l.1-.1.2-.1h.1l1.1.4h.1v-.1l-.3-.6-.3-.1.2-.1.2-.1c0 .1-.1.1 0 .3l.5 1zm.9-.5c-.3.2-.7.2-.9-.2-.2-.4-.2-.8.2-1.1.3-.2.7-.2.9.2.1.2.3.7-.2 1.1zm1.2-.9l-.3.2h-.1L27 34v-.1h.1l.5.2v-.5c-.1-.1-.2-.1-.6 0l-.5-.1c-.1-.2-.1-.4.1-.5l.3-.1.1-.1h.1l.2.2v.1c-.1 0-.3-.2-.6 0l-.1.3c.1.1.2 0 .5 0 .2-.1.4-.1.5.1.2.2.2.4 0 .6z"/><path d="M25.7 9c-.5.1-.7-.1-.7-.1.2.3.1.7.1.7h-.5v.2c0 .3.1.4.2.7.1.3.7.8 1 1.1.3.3.4.6.6.9.2.3 0 .4.4.4.3 0 .4-.6.4-.6.1-1.1-1-1.4-1.4-3-.1-.1-.1-.3-.1-.3zm-1.6-3.6l.1-.4-.1.4zm-9.3 29.2s1-.4 2.5-1.2c-.6 0-.7.4-1.3.4-.6 0-.7-.4-1.4-.4-.8 0-.7.4-1.2.4s-.6-.2-1-.3l-1.1-.6c.2-.1.3-.3.8-.3.7 0 .8.4 1.3.4.6 0 .5-.4 1.2-.4.8 0 .8.4 1.4.4.6 0 .6-.4 1.3-.4.5 0 .6.2.9.3l.3-.2c-.5 0-.6-.4-1.2-.4s-.7.4-1.3.4c-.6 0-.7-.4-1.4-.4-.8 0-.7.4-1.2.4-.6 0-.7-.4-1.3-.4-.6 0-.6.3-1 .3l-1.4-1h.2c.8 0 1.1.4 1.1.4.6 0 .5-.4 1.2-.4s.8.4 1.3.4c.6 0 .5-.4 1.2-.4.8 0 .9.5 1.4.4.6-.1.6-.4 1.3-.4.6 0 .7.4 1.2.4s.6-.4 1.4-.4h.1l.2-.2h-.4c-.8 0-.8.4-1.4.4-.5 0-.6-.4-1.2-.4s-.7.4-1.3.4c-.6 0-.7-.4-1.4-.4-.8 0-.7.4-1.2.4-.6 0-.7-.4-1.3-.4-.7 0-.6.3-1.2.4 0 0-.3-.4-1.1-.4-.2 0-.3 0-.5.1l-.5-.4c.3-.1.3-.3.9-.3-.2-.1-.2-.3-.2-.3s.3-.4.5-.6c.2-.2.4-.4.4-.5l.4-.3.2-1.4H5c4.2 5 9.8 6.9 9.8 6.9zm-.2-.9c.8 0 .8.4 1.4.4l-1.2.5-1.3-.5c.5-.1.5-.4 1.1-.4zM13.3 0H16h-2.7zm13 7.3zm-7.7 21.9l.4.3.3.4.6 1 .1.1h-.1l-.8.2h-.3c-.2 0-.3 0-.6-.1-.4-.1-.5-.2-.9-.2s-.7.2-1.2.3c-.5 0-1.1-.3-1.4-.3-.3 0-.9.4-1.1.4h-.1c-.2 0-.4-.1-.6-.2-.2-.1-.5-.3-.7-.3-.2 0-.6.3-.8.4-.1 0-.3.1-.6.1l.1.1c.6 0 .5-.4 1.2-.4s.8.4 1.3.4c.6 0 .5-.4 1.2-.4.8 0 .8.4 1.4.4.6 0 .6-.4 1.3-.4.6 0 .7.4 1.2.4s.6-.4 1.4-.4c.7 0 .4.2.9.2 1.2-1 2.4-2.1 3.4-3.3h-5.9l.3 1.3zM1.4 16.8c0 4.7 1.7 8.2 3.8 10.9L9.5 13h-.3v-.3l-.1-.2.1-.3.2-.3.1-.3c-.1-.1-.1-.2-.3-.3-.2-.1-.3-.2-.4-.2l-.4-.1c0 .2-.1.4-.2.6 0 0-.2-.8-.8-1v.3c0 .1-.6.3-.7.6-.1.2-.2.3-.2.3.2-.1 1.4-.5 1.5.8 0 0-.1.4-.3.5 0 0 .2.1 0 .3-.2.2-.7.6-.9.9-.2.3.1.5.2.8.1.2.4.7.6.8l.2.3.1-.2.1-.5.3-.2.2-.2.2-.1v.5c0 .1-.1.6-.2.8-.1.2-.5.8-.7.8-.3 0-.4-.1-.5-.3-.1-.2-.3-.5-.3-.5l-.3-.1-.3-.3-.4-.4-.3-.2v-.4l.3-.4V14s-.1.2-.3.3l-.3.3-.4.2s0 .3-.1.5-.3.7-.6.9c-.2.2-.3.5-.3.7 0 .2 0 .3-.1.5-.2.2-.2.3-.2.4 0 .2.1.4-.1.8-.1.2-.2.5-.1.8 0 .2 0 .6.3.6s.3-.2.5-.2.4-.1.5 0l.4.3c0 .1 0 .1-.2.2-.2.2-.5.3-.8.3-.3 0-.7.1-.9 0l-.4-.3-.1-.7-.1-.5.2-.9s.1-.2.1-.4-.1-.5-.1-.7l.3-.8.1-.3-.3-.1.3-.5h-.4l.1-.3h-.2l.1-.3h-.2l.1-.3h-.2l.1-.3h-.2l.2-.5s-.8-.6-.8-1.4 1.5-2.1 1.5-3.5c0-.3 0-.6-.1-.7L3 7.9v-.3c-.1-.1-.4-.1-.4-.1-.1 0-.6.1-.5.6l.1.2s.7.2.5.7c-.2.5-.7.8-.6 1.1 0 .3.2.6.3.6.1 0-.8.2-.7-.6.1-.8.2-.8.2-1 .1-.2-.3-.5-.3-1.1 0-.6.5-.9 1-.9l.4.1c-.2-.2-.7-.5-.8-1.1 0 0 .2-.2.6-.1-.1-.1-1-1-.9-1.5 0 0 .6 0 .9.2 0 0-1.3-1-1-1.9 0 0 .7.6.9.7 0 0-1.5-2-.7-2.9 0 0 .9 1.8 1.2 2 0 0 .1-.1.1-.4l.1.1c-.1-.6.3-2 .9-2.1 0 0-.3 2 0 2.5 0 0 .1-.3.2-.4 0 0 .1 1.1.2 1.4l.2-.3s.2.8.4.8v.3c0-.6.3-.9.4-1h-.1l.1-.5.2.1h.2v-.2l.4.1h-.1.7c.2 0 .3.3.3.3H8c.6-.1.5.7.5.7l-.3-.2-.4.4.1.1.3.2.4.1-.1.1c-.1.1-.2.2-.5.2s-.4-.2-.6-.2l-.4.1V5c0 .2.2.4.5.6.3.2.7.5.9.8.2.2.3.5.3.7l.3-.5c.1-.1.2-.1.2-.4 0-.2.1-.6.1-.8 0 0 .4.2.4.7l.2-.4.1-.3c.1-.4.2-.8.2-1 0-.3 0-.5-.1-.7-.1-.1-.3-.3-.2-.4l.1-.4.2-.3h.1l-.1.3.2-.2c0-.1 0-.4.3-.4h.1s-.2.1-.2.3l.1.1.1.3v.2l.2-.3h.1s-.1-.3.4-.2l-.2.2-.1.4-.2.5-.1.6.2.8.2.4-.2.4h.1l.2.1-.1.1-.4-.2h.1l-.2-.1-.1-.4v-.3l-.1-.1s-.2.2-.2.4c-.1.2-.2.4-.2.6l-.1.3c.2 0 .4 0 .5.8 0 0-.1-.6-.6-.3-.4.3-.2 1.1-.4 1.1-.1.1-.5.3-.6.5l-.1.4c-.4.6-.6 1-.8 1.1 0 0 .3-.2.8-.2l-.4.4.1.2c.2.2.5.4.6.4l.3.2.2-.2-.1-.4-.1-.2v-.3l.1-.2.1-.2h.2l.3-.1h.1l.1.1L13.3 0H1.4v16.8zM24.6 6c-.3 0-.5-.4-.5-.5-.1.4-.2.8-.2 1 0 .2.1.4.1.4.9 0 .6-.9.6-.9zM5.4 5.4L5.3 5l.1.4zM3.9 9v.2c-.4 1.6-1.5 2-1.4 3 0 0 .1.6.4.6.3 0 .2-.1.4-.4.2-.3.2-.6.5-.9.3-.3.9-.7 1-1.1.1-.3.2-.4.2-.7v-.2h-.5s0-.4.1-.7c0 .1-.2.3-.7.2zm1.7-2.1c0-.1.1-.2.1-.4s-.1-.6-.2-1c-.1.1-.3.5-.6.5 0 0-.3.9.7.9zm-2.4.4zm7.1 2.9l-.2.6.2-.6zm.2-.6h-.1v.2l.1-.2zm-1 3l-.1.1v.2l.1.1.5-1.6-.1.1c-.1.2-.2.4-.2.5l-.2.6zM16 0l8.3 27.8c2.1-2.7 3.8-6.3 3.8-11V0H16zm11.9 10.1c.1.8-.8.6-.7.6.1-.1.2-.3.3-.6 0-.3-.5-.6-.6-1.1-.2-.5.5-.7.5-.7l.1-.2c0-.5-.4-.6-.5-.6 0 0-.3-.1-.5.1v.3l-.2.1c-.1.2-.1.4-.1.7 0 1.4 1.5 2.7 1.5 3.5 0 .8-.8 1.4-.8 1.4l.2.5h-.2l.1.3h-.2l.1.3h-.2v.3h-.2l.1.3h-.4l.3.5-.2.2.1.3.3.8c0 .1-.1.4-.1.7 0 .3.1.5.1.6l.1.9-.1.5-.1.7-.4.3c-.2.1-.6 0-.9 0-.3 0-.6-.2-.8-.3-.2-.2-.3-.1-.2-.2l.4-.3c.1-.1.3 0 .5 0s.3.2.6.2.3-.4.3-.6c.1-.3 0-.6-.1-.8-.2-.3-.1-.6-.1-.8 0-.2 0-.2-.2-.4s-.1-.3-.1-.5-.1-.4-.3-.6c-.2-.2-.5-.7-.6-.9-.1-.2-.1-.3-.1-.5l-.3-.4-.3-.3-.3-.3v.5l.2.4v.4l-.3.2-.4.4-.3.3-.3.1s-.2.3-.3.5c-.1.2-.2.3-.5.3s-.6-.6-.7-.8c-.1-.2-.3-.7-.3-.8v-.5l.2.1.2.2.3.2.1.4.1.2c0-.1 0-.2.2-.3.2-.1.5-.5.6-.8.1-.2.4-.5.2-.8-.2-.3-.7-.7-.9-.9-.2-.2 0-.3 0-.3-.2-.1-.3-.5-.3-.5.1-1.2 1.3-.9 1.5-.8 0 0-.1-.1-.2-.3-.2-.3-.8-.5-.7-.6v-.3c-.6.2-.8 1-.8 1-.1-.2-.2-.4-.2-.6l-.4.1c-.2 0-.3.1-.5.2s-.2.2-.3.3l.1.3.2.3.1.3-.1.2.1.3H20l.1-.1v-.2l-.1-.1-.1-.5c0-.2-.1-.4-.2-.5l-.2-.7-.2-.6-.1-.5.1-.1H19l.2-.2h.1l.3.1h.2l.1.2.1.2.1.3-.1.2-.1.4.1.1.4-.1c.1 0 .4-.3.6-.4l.1-.2-.4-.4c.5 0 .8.2.8.2-.1-.1-.4-.5-.8-1.1l-.2-.5c-.1-.2-.4-.3-.6-.4-.2-.1.1-.8-.4-1.1-.5-.3-.6.3-.6.3.1-.7.3-.8.5-.8l-.1-.3c0-.1-.2-.4-.2-.6 0-.2-.1-.3-.2-.4l-.1.1v.3l-.1.4h-.2.1l-.2.2-.1-.1.1-.1h.1l-.1-.2.2-.4.2-.8-.1-.6-.2-.6-.2-.4-.2-.2c.5-.1.4.2.4.2h.1l.3.4v-.3l.1-.3v-.1c0-.2-.2-.3-.2-.3h.1c.3-.1.3.3.3.4l.2.2-.1-.3h.1c.2 0 .2.3.2.3l.1.4c0 .1-.1.3-.3.5-.1.2-.1.4-.1.7 0 .3.1.6.2 1l.1.3.2.4c0-.5.4-.7.4-.7-.1.2 0 .5.1.8 0 .2.1.2.2.4l.3.5c.1-.2.2-.4.4-.7.3-.3.7-.6.9-.8.3-.2.5-.4.5-.6v-.3l-.4-.1c-.2 0-.3.2-.6.2s-.4-.1-.5-.1l-.1-.1.4-.1.3-.2.1-.1-.4-.4H21s-.1-.8.5-.8h.6s.1-.3.4-.3c.2.1.2.1.4.1h.2-.1l.5-.1v.2h.2l.2-.1.1.5-.1.1c0 .1.3.4.4 1v-.3c.2 0 .4-.8.4-.8l.2.3c0-.3.1-1.4.1-1.4.2 0 .2.4.2.4.3-.6 0-2.5 0-2.5.5.1 1 1.5.9 2.1l.1-.1c0 .3.1.4.1.4.4-.2 1.2-2 1.2-2 .8.9-.7 2.9-.7 2.9.2-.1.9-.7.9-.7.3.9-1 1.9-1 1.9.3-.2.9-.2.9-.2.2.4-.7 1.3-.8 1.4.4 0 .6.1.6.1-.1.6-.6.9-.9 1l.4-.1c.5 0 1 .4 1 .9 0 .6-.3.9-.3 1.1.1.3.1.3.3 1.1z"/><path d="M3.8 14.8v.2l-.1.2.1.1.2-.4v-.2l-.2.1zm7.6-12.1l-.2-.1-.2.2h-.1l-.2.2v-.1l-.1-.3-.1-.1c0-.2.2-.2.2-.2h-.2c-.2 0-.3.2-.3.3l-.1.2v-.2H10l-.1.3-.1.4c0 .2.2.3.3.5.1.2.1.3.1.6v.1c0 .2-.1.6-.2 1l-.1.2v.1l-.1.2c-.1-.4-.4-.6-.4-.6l-.1-.1V5.6c0 .2-.1.4-.1.6 0 .2-.1.2-.2.3l-.2.5-.3-.6c-.3-.3-.6-.6-1-.8-.2-.2-.4-.5-.4-.6v-.2h.4c.1 0 .3.2.6.2h.2l.3-.1.1-.1v-.1h-.1l-.4-.2-.3-.2v-.1l.1-.1.2-.2.3.2.1.1V3.9c0-.2 0-.8-.5-.8h-.6c0-.1-.2-.3-.4-.3-.2.1-.3.2-.5.2h-.1l-.4-.1-.1-.1V3h-.1l-.2-.1-.1-.1V3l-.1.4v.1h.1l.1.1s-.2.2-.3.6l-.3-.4C5 3.6 5 3.5 5 3.5v-.1h-.1l-.2.2c-.1-.4-.1-1.2-.1-1.2v-.1h-.1l-.2.3c-.1-.2-.1-.5-.1-.8 0-.7.1-1.5.1-1.5V.2h-.1c-.5.1-.9 1.2-.9 1.9v.5c-.2-.2-.4-.6-.7-1-.3-.5-.5-1-.5-1V.5L2 .6c-.2.2-.2.5-.2.7 0 .8.5 1.6.8 2-.3-.1-.7-.5-.7-.5l-.1-.1v.4c0 .6.5 1.1.8 1.4-.4 0-.7-.1-.7-.1h-.1v.1c0 .5.6 1.1.8 1.3-.3.2-.5.3-.5.3.1.5.4.7.6.9h-.1c-.6 0-1 .4-1.1 1v.1c0 .5.3.8.3.9 0 .2-.1.2-.2 1v.2c0 .5.4.6.6.6h.2v-.2s-.2-.3-.3-.6c0-.2.4-.5.6-1v-.2c0-.4-.5-.5-.6-.6v-.1c0-.4.3-.5.4-.5H3v.3l.2.1c0 .2.1.3.1.6v.1c0 1.4-1.5 2.7-1.5 3.5 0 .8.6 1.3.8 1.4l-.2.5v.1h.2l-.1.4h.2l-.1.2v.1h.2V15.2H3l-.1.2v.1h.3l-.2.4.2.1-.1.3-.3.8c0 .2.1.4.1.7 0 .3-.1.4-.1.5l-.2 1 .1.5.1.7c.1.2.3.3.5.3h.2c.2 0 .5 0 .7-.1.3 0 .6-.2.8-.3l.2-.2v-.1l-.4-.3-.2-.1h-.4c-.2 0-.3.2-.5.2h-.1c-.2 0-.2-.3-.3-.5v-.3c0-.2.1-.3.1-.5.1-.2.1-.4.1-.5v-.2c0-.2 0-.2.2-.4s.1-.3.1-.5.1-.4.3-.6c.2-.2.5-.8.6-.9l.3-.6.2-.2.2-.2.3-.3.2-.2v.2l-.1.3-.2.4v.4l.4.2.4.4.3.3.3.1.2.5c.1.2.2.4.5.4s.6-.6.8-.8c.1-.2.3-.7.3-.9v-.6h-.1l-.2.2-.2.1-.3.2-.2.6v.1l-.2-.2c-.1 0-.5-.5-.6-.7-.1-.2-.3-.4-.3-.5l.1-.2c.2-.3.7-.7.9-.9l.1-.2-.1-.1c.2-.3.3-.6.3-.6-.1-.8-.5-1-.9-1l-.5.1.1-.2.3-.3.2-.1.1-.2v-.2c.5.3.7 1 .7 1v.1l.1-.1c.1-.2.2-.4.2-.6l.3.1c.2 0 .3.1.4.2.2.1.2.2.3.3l-.1.2-.2.3v.2l.1.2v.2l.2.1h.2l-.1-.1v-.1l.2-.1.2-.6.2-.5c.1-.2.2-.6.2-.7l.2-.6.1-.5v-.1h.1l-.2-.2h-.7l-.1.3v.1l-.1.2v.2l.1.2.1.3v.1l-.2.1-.3-.1s-.4-.2-.6-.4l-.1-.1.4-.4.1-.1h-.2c-.2 0-.4 0-.6.1.1-.2.4-.5.7-1l.2-.5.6-.4c.1-.1.1-.3.1-.5s.1-.5.3-.6l.2-.1c.2 0 .3.3.3.3h.1c0-.6-.2-.8-.4-.8l.1-.3c0-.1.2-.4.2-.6l.1-.3v.3l.1.4.1.1.3.2.1-.1-.1-.1.1-.2-.2-.5-.2-.8c0-.3.1-.5.1-.6l.2-.5.1-.4v-.2l.1-.1zM8.7 4.6zm1.8-2.2l-.1.2h-.1l.2-.2zm-.4.2v.2H10l.1-.2zm.1 1.2c-.1-.2-.3-.4-.3-.4l.1-.5h.1v.2c0 .1.1.2.2.4v.4l-.1-.1zm-2.7.8h-.4v-.2h.4l.2.2.1.1-.3-.1zm-.4-.3l.3-.1h.2-.2l-.3.1zm1 .3l.3.1-.1.1-.5-.2-.2-.2h.1l.2-.1H8l.1.3zm0-1.3c.2 0 .3.1.3.3l.1.4-.3-.2-.3.2-.1.2H7.2l.1-.4.2-.4c0-.1.6-.1.6-.1zm-.8.1zM6.1 3zm-.4.6v-.2l.1-.4.1.1h.2l.4-.1h.2c.1.1.2 0 .4 0l.3.2-.1.1-.2-.1h-.4l-.3.1-.2.1.4.1-.3.3V4h.1l.4-.1.2.1.2-.1-.2.3-.1.1.1.4V5c0 .2.3.4.5.7.3.2.7.5.9.8.3.3.3.7.4.9l.3.3H9l-.5-.3c-.1-.1-.2-.2-.4-.2l-.2.2-.1.2-.2-.3-.1-.2-.2-.1-.2.2-.1.2-.3-.4h-.1v.1l-.1.2h-.2l-.7-.4c.1-.1.1-.3.1-.4 0-.2-.1-.6-.2-1l-.1-.2v-.8c0-.5.3-.8.3-.9zm-.1 2.9l-.1.3c-.5 0-.5-.3-.6-.5L5 6c.2 0 .4-.2.5-.3 0 .3.1.6.1.8zM4.7 4l.1-.2.1-.2.1.3c.1.2.1.4.3.4v.9l-.4-.5-.2-.1V4zm-.4-1.1l.1-.1.1-.3c0 .3.1 1 .2 1.3 0 .1-.1.3-.1.6L4.3 4l-.1-.4v-.1c0-.2 0-.5.1-.6zM4.2.5c0 .3-.1.9-.1 1.4 0 .4 0 .7.1.9 0 0-.1.2-.1.4-.1-.2-.4-.8-.4-1.5 0-.4.1-.9.5-1.2zm-.3.1c-.2.4-.3.8-.3 1.1 0 .8.4 1.6.4 1.6l-.1.2-.1-.2-.3-.7v-.5c-.1-.4.1-1.1.4-1.5zm-.6 2.1v-.2c.1.5.5 1 .6 1.1v.6l-.2.2c-.2-.5-.4-1.1-.4-1.7zm2.6 6.5l.2-.5h.1l.3-.1.2.2h.1c-.1.1-.4.3-.9.4zm.1.1l-.5.8v-.2c0-.2.1-.4.2-.5 0-.1.3-.1.3-.1zm-.2-.1l-.2-.4.3-.1c0 .1-.1.5-.1.5zm-.2 0c-.1.1-.4.4-.9.4.4-.2.5-.6.6-.7l.2-.1.1.4zm-1.8-2h-.4l.4-.3v.3zm0 .9c.2.1.4.2.6.2l-.3.2-.4.4c0-.2.1-.6.1-.8zm.7.3c0 .2.1.5.1.5.2 0 .4.1.5.1-.1.2-.3.4-.6.5 0-.1 0-.4.1-.6h-.2l-.3.1h-.3c.3-.2.5-.5.7-.6zm-.6.9v-.2h.5v.6h.5v.2c0 .3-.1.3-.2.7-.1.3-.6.8-1 1-.3.3-.4.6-.5.9l-.1.3h-.2c-.3 0-.4-.5-.4-.5v-.1c0-1 1-1.4 1.4-2.9zm1.3-.5h-.4c.2-.2.3-.4.3-.6l.1.2.3.3c0 .1-.3.1-.3.1zm-.5-.1l-.1-.4v-.1h-.1s-.3 0-.6-.1l.4-.3v.3s.1 0 .3.1h.3c.1.1 0 .4-.2.5zm-.3-1.3v.1c-.1.1-.3.4-.5.5v-.7H4v.1h.4c0-.1 0 0 0 0zm-1-.3v-.3l.1-.3h.1-.1l-.4-.4V6h.5c-.1.2-.1.4-.1.4l.4.3-.5.4zm.2-1.2c-.1 0-.4 0-.6.1l.1-.2.2-.3.3.4c0-.1 0 0 0 0zm-.2-.6h-.1c-.1 0-.2-.2-.3-.4h.1l.4.1h.1l-.2.3zm.2-.4c-.1-.1-.3-.1-.5-.1l.4-.2c.1 0 .1.3.1.3zM2.1.8c.2.4.8 1.6 1.1 1.8 0 .2 0 .4.1.6-.4-.3-1.2-1.4-1.2-2.4 0 .1 0 0 0 0zM2 .7zm-.1.6L2 .9c0 1.2 1.3 2.6 1.3 2.6.1.3.2.6.2.8-.2-.2-.4-.5-.6-.7l-.1-.1s-.9-1.2-.9-2.2zm.8 2.3l.8.8-.2.1-.6-.6c-.3-.3-.6-.6-.8-.9.2.2.6.5.8.6zm.1 1.2c.1-.1-1-.9-.9-1.7V3c.2.7 1.1 1.4 1.3 1.6l-.3.2h-.1c.1.3.3.5.4.6v.1l-.6-.3c-.3-.2-.5-.4-.6-.6.2 0 .5.1.8.2zm-.4.7C2.2 5.3 2 5 2 4.8c.3.4 1 .7 1.1.8l-.2.4h-.1c-.1-.1-.2-.3-.4-.5zm-.1.6c.1 0 .2-.1.4-.1H3l.3.4h-.4c-.3 0-.6-.1-.6-.3zm0 .2c.3.2.8.2 1.1.2v.7h-.1l-.2-.1c-.3-.1-.6-.4-.8-.8zm.5 1.2h-.2c-.2 0-.6.1-.6.6l.1.3s.5.1.5.5V9c-.1.4-.5.7-.5 1 0 .2.1.5.2.6v-.1s-.1-.1-.2-.4L2 10l.1-.3c.1-.2.3-.4.4-.7v-.1c0-.3-.4-.5-.4-.5v.1s.3.2.3.4V9c-.1.2-.3.4-.4.6l-.1.4.1.3v.1c-.1-.1 0-.2-.1-.4 0-.2.2-.9.3-1v-.1c0-.2-.3-.5-.3-.5l-.1.2.2.1.1.2c-.1.2-.3.8-.3 1.1l.1.4.3.2c-.2 0-.4-.1-.4-.4v-.1c.1-.8.2-.8.2-1 0-.2-.3-.5-.3-1V8c0-.5.4-.8.9-.9h.1l.3.1.1.1-.1.2h-.2zm.5-.2l.3.1-.5.4.2-.5zm-.1.6c.2-.1.4-.3.6-.5V8c-.2 0-.4-.1-.6-.1zM7 11.8c.4 0 .8.1.8.8l-.2.5-.1.1h.1l.1.1-.1.1c-.2.2-.7.6-.9.9l-.1.3c0 .2.2.4.3.6.1.2.4.7.6.8l.2.2-.1.3h.1v-.2l.1-.1h.1l.1-.3.1-.1h.4l.1-.1-.3-.1h-.1l-.2.2v-.2l.2-.2h.1l.2.1.1-.1-.2-.1.1-.1.1-.1v.4l-.2.8c-.1.2-.5.8-.7.7-.2 0-.4-.1-.4-.3-.1-.1-.3-.4-.3-.4l-.2-.1-.3-.3c-.1-.1-.2-.3-.4-.4l-.3-.2v-.4l.2-.4.1-.3v-.1L6 14c0-.5.1-.6.2-.9.1-.2.4-.3.4-.3v-.1h-.2v.1l-.3.3c-.1.2-.2.3-.2.8l-.3.3-.2.1c.1-.3.1-.6.1-.9V13s.2-.2.4-.3l.3-.1v-.2l.1-.3c.2-.2.4-.3.7-.3zm.2-.9c-.1.1-.5.3-.7.6l-.1.2-.1.4v.1l-.4.2-.4.3c-.1-.2-.2-.4-.2-.5l.1-.5h-.1s-.1.4-.1.6v.1c0 .1.2.3.2.6V13.3c0 .4 0 .8-.3 1.2l-.1.3-.1.5c-.1.2-.3.7-.5.9-.4.2-.4.5-.4.7 0 .2 0 .3-.1.5-.2.2-.2.3-.2.5v.2c0 .1 0 .3-.1.5s-.2.3-.2.5v.3c0 .2 0 .6.4.6h.1l.3-.1h.1l.3.2.1.2h.1l-.1-.2-.3-.2H4.7l.2.1.2.3H5l-.1-.3.3.2-.2.1c-.2.2-.5.3-.8.3-.2 0-.5.1-.7.1h-.2l-.3-.3-.1-.6-.1-.5.2-.9c-.1-.2 0-.4 0-.6 0-.3-.1-.6-.1-.7l.3-.7.1-.3v.1l.2-.1.2-.4c0-.2-.1-.5-.3-.7-.1-.3-.3-1-.4-1.2v-.1c0-.2.3-.7.3-.7l-.1-.1s-.3.5-.3.8v.1c.1.2.3.9.5 1.1.1.2.2.6.2.7l-.1.4h-.2l-.2-.1.1-.1.2-.2.2-.1h-.5l.1-.2v-.1h-.3V14.9h-.1l.1-.2v-.1h-.2l.1-.3v-.1h-.2l.2-.5h-.1s-.8-.6-.8-1.4c0-.8 1.5-2.1 1.5-3.5 0-.3 0-.5-.1-.6l.3.1V9h.1v.2c-.3 1.5-1.4 1.9-1.4 2.9v.1s.1.6.5.6h.1l.2-.1.1-.3c.2-.3.2-.6.5-.9.3-.3.9-.8 1-1.1.2-.2.3-.3.3-.6v-.2c.2 0 .4-.1.5-.2-.1.3-.1.8-.1.8v.1h.1c.5-.1 1-.6 1.1-.7l.1.1.5.5.1.5-.1.2zM9.5 13h-.2v-.2l.1-.1.1.3zm.9-3.5l.1.1h-.1v-.1c-.1 0 0 0 0 0zm-.7.5v-.1l.1-.1h.1v.8l-.1.2v-.2l-.1-.3V10zm-.1.3v-.2.1l.1.3v.1-.1c0-.1-.1-.2-.1-.2zm-.9.5c.2 0 .4.2.4.2l.3.1h.2l.1-.1.1-.2.1-.3v-.8l.2-.1.2.3-.1.4-.2.7-.2.7c-.1.2-.2.4-.2.5l-.1.5-.3.2-.1-.2.1-.3.2-.3.1-.2v-.1c-.1-.1-.1-.2-.3-.3-.2-.1-.3-.2-.5-.2l-.3-.3v-.1h.1l.2-.1zm.1-.8l-.3.3.2.4h-.4v.2c0 .1 0 .3-.1.6-.1-.2-.4-.8-.9-1l-.1-.4v-.3l-.1-.3H7l.1.3v.2l-.4-.3-.1-.2h-.1s-.4.5-.9.7l.6-.9c.5-.2.8-.5.8-.5h.2v-.1h-.3l-.3-.2v-.1h-.2l-.2.2c-.3 0-.5.1-.6.1l-.3-.3-.1-.3V8h-.7V7.3h-.4L4 7.2l.1-.4h.1l.1-.1h-.2l-.4-.3v-.3l.1-.2.1.1.1.1-.2-.5h-.1v.1l-.2-.3.3-.4.1.1.1.2v-.4h-.2l-.1-.3.3-.2v-.9c0 .2.1.4.2.6.2.2.2.4.6.8.2.1.4.3.5.4v.2c0 .1-.1.4-.3.4h-.1l-.1.4c0 .2.2.6.7.7 0 0 .6.4.8.4l.2-.1.1-.1.4.3.2-.2.1-.2.1.3.3.3.1.4v.2c0 .3-.1.8-.2 1v.1c0 .3.3.7.3.7v.1-.1c.3 0 .5-.1.9-.1zm-5-4.2zm5 3.1c-.3.6-.7 1-.8 1.1-.1-.1-.2-.4-.2-.6v-.1c0-.2.2-.7.2-1V8l-.1-.3.1-.2.2-.2.3.3.4.3.1.4c0 .2-.1.4-.2.6zm1.7-2.1l-.2-.1-.3.1c-.2.2-.3.5-.3.8V8l-.6.3-.1-.5H9.3v-.1l-.4-.4v-.2l.3-.5c.1-.1.2-.1.2-.4 0-.2.1-.4.1-.6.1.1.2.3.2.5v.2l.1-.1.2-.3v.7l.2-.1h.1s.2 0 .2.3zm.8-.7L11 6h.2l.1.1zm-.2-2.8l-.2.6c0 .1-.1.3-.1.5v.1l.2.8.2.4-.1.2h-.2l-.1-.4v-.3l-.1-.1V5h-.1v.2s-.2.2-.2.4l-.2.6-.1.3v-.4l-.1-.2v-.1l.1-.3c.1-.4.2-.7.2-1V4h.1v-.5c0-.2-.2-.4-.2-.4l.1-.2.1-.1h.1l.1.2v.2l-.1.3V4.1h.1v-.5l.1-.2.3-.4h.2l-.1.3zm.1-.4H11l.2-.1h.1c0-.1-.1.1-.1.1zM3.8 16.2l-.1.3-.1.2v.1h.1l.1-.1.1-.3-.1-.2zm3-5.3s-.3.3-.7.4c-.4.1-.5.2-.6.4v.2h.1v-.2c0-.1.1-.2.5-.3.5-.2.8-.4.7-.5.1.1 0 0 0 0zM3.1 17v.1l.1.3v.4l-.2.5V19.7l.2.2.1-.1-.2-.1v-.1l.1-.5c0-.2-.1-.4-.1-.6v-.1l.2-.4v-.4c0-.2-.1-.4-.1-.4l-.1-.2zm2.6-9.8h-.4V7c-.1-.1-.3-.1-.5-.2-.3-.2-.2-.2-.3-.3l.1-.2v-.1l-.1-.4v-.3l.1.1h.1l.2-.1v-.1L4.7 5l-.3-.3v.1l.1.1.1.2.1.3h-.1l-.2-.1-.1-.1v.5l.2.4-.1.4c0 .1 0 .2.3.4.3.1.4.1.4.2l.1.2.1.1.2-.1h.1c.2.1.4.4.4.5h.1c.1-.2-.1-.5-.4-.6zm1-2.3l.1-.5.1-.2h-.1l-.1.1-.1.5.1.1zm-.5 10.3v.1h.1l.2.2c.1.1.3.5.5.6l.3.3h.1v-.1L7 16l-.4-.6-.2-.2.2-.2h-.1c0-.1-.1.1-.3.2zm19-10.4zm.5 10v.2l.1.2-.1.1-.1-.3v-.2c0-.1.1 0 .1 0zM18.1 2.7l.2-.1.2.2h.1l.2.2v.1l.1-.3.1-.2c0-.2-.2-.2-.2-.2h.2c.2 0 .2.2.2.3v.1l.1.1v-.2h.1l.2.3.1.4c0 .2-.2.3-.3.5-.1.2-.1.4-.1.6v.1c0 .2.1.6.2 1l.1.3V6h.2c.1-.4.4-.6.4-.6l.1-.1-.1.2v.1c0 .2.1.4.1.6.1.2.1.2.2.3l.2.5.3-.6c.3-.3.7-.6.9-.8.3-.2.5-.5.5-.6v-.2H22c-.1 0-.3.2-.6.2h-.2l-.2-.2-.1-.1v-.1h.1l.3-.1.3-.2.1-.1-.1-.1-.2-.2-.4.2-.1.1V3.9c0-.2 0-.8.5-.8h.6c0-.1.2-.3.4-.3s.3.1.5.1l.1.1.5-.1h.1v.2h.1l.2-.1.1-.2V3.4l.1.1H24l-.1.1s.2.2.3.6l.2-.4c0-.1.1-.3.1-.4v-.1h.1l.2.2c.1-.3.2-1.1.2-1.1v-.1h.1l.2.3c.1-.2.1-.5.1-.8 0-.7-.1-1.5-.1-1.5V.2h.1c.5.1.9 1.2.9 1.9v.5c.2-.2.4-.6.7-1 .3-.5.5-.9.5-.9V.6l.1.1c.2.2.2.5.2.7 0 .8-.5 1.6-.8 2 .3-.2.7-.6.7-.6l.1-.1v.1l.1.3c0 .6-.5 1.1-.8 1.4.3-.1.6-.1.6-.1h.1v.1c0 .5-.6 1.1-.8 1.3.3 0 .5.1.5.2-.1.4-.4.7-.6.9h.1c.6 0 1 .4 1.1 1V8c0 .5-.3.8-.3.9 0 .2.1.2.2 1v.2c0 .5-.4.6-.6.6h-.1v-.2c.1 0 .2-.3.3-.6 0-.2-.5-.6-.6-1v-.2c0-.4.5-.5.6-.6l.1-.2c0-.4-.3-.5-.4-.5h-.2l-.2.1v.3l-.6.2c-.1.2-.1.3-.1.6v.1c0 1.4 1.5 2.7 1.5 3.5 0 .8-.6 1.3-.8 1.4l.2.5v.1h-.2l.1.4h-.2l.1.2v.1h-.2V15.2h-.2l.1.2v.1h-.3l.2.4-.2.1.1.3.3.8c0 .2-.1.4-.1.7 0 .3.1.4.1.5l.2 1-.1.5-.1.7c-.1.2-.3.3-.5.3H26c-.2 0-.5 0-.7-.1-.3 0-.6-.1-.8-.3l-.3-.2v-.1l.4-.3.2-.1h.4c.2 0 .3.2.5.2s.2-.3.3-.5v-.3c0-.1 0-.3-.1-.5s-.2-.4-.2-.5v-.2c0-.2 0-.2-.2-.4s-.1-.3-.1-.5-.1-.4-.3-.6c-.2-.2-.5-.8-.6-.9l-.1-.5-.2-.2-.2-.2-.3-.3-.1-.3v.5l.2.4v.4l-.4.2-.4.4-.3.3-.3.1-.2.5c-.1.2-.2.4-.5.4s-.6-.6-.8-.8c-.1-.2-.3-.7-.3-.9v-.6h.1l.2.2.2.1.3.2.1.4v.1l.2-.2c.1 0 .5-.5.6-.7.1-.2.3-.4.3-.5l-.1-.2-.9-.9-.1-.2.1-.1c-.2-.2-.2-.5-.2-.5.1-.8.5-1 .9-1l.5.1-.1-.2-.4-.4-.2-.1h.1v-.2c-.5.3-.7 1-.7 1v.1l-.1-.1c-.1-.2-.2-.4-.2-.6l-.3.1c-.2 0-.3.1-.4.2-.2.1-.2.2-.3.3l.1.2.2.3.1.4-.1.2v.2l-.1.1h-.2l.1-.1V13l-.3-.3-.2-.6-.2-.5c-.2-.2-.2-.6-.2-.7l-.2-.6-.1-.5v-.1H19l.2-.2h.2l.3.2h.2l.1.1v.1l.1.2v.2l-.1.2-.1.3v.1l.1.1.3-.1.6-.4.1-.1-.4-.4-.1-.1h.2c.2 0 .4 0 .6.1-.2-.2-.4-.5-.7-1l-.2-.5-.6-.4c-.2-.1-.1-.3-.1-.5s-.1-.5-.3-.6l-.2-.1c-.2 0-.3.3-.3.3h-.1c0-.6.2-.8.4-.8l-.1-.3c0-.1-.2-.4-.2-.6l-.1-.3v.3l-.1.4-.1.1-.3.2-.1-.1.2-.1-.1-.2.2-.5.2-.8c0-.2-.1-.4-.1-.5l-.2-.5-.1-.5v-.2l-.2-.1zm2.8 1.9zM19 2.4v.2h.1c.1 0-.1-.2-.1-.2zm.5.2v.2h.1l-.1-.2zm-.1 1.2c.1-.2.3-.4.2-.4l-.1-.4h-.1v.2c0 .1-.1.2-.2.4V4c.1 0 .2-.2.2-.2zm2.7.8h.4v-.2h-.4l-.2.2-.1.1.3-.1zm.4-.3l-.3-.1H22h.2l.3.1c-.1 0 0 0 0 0zm-1.1.3l-.3.1.2.1h.1l.4-.2.2-.2h-.1l-.2-.1-.3.3zm.1-1.3c-.2 0-.3.1-.3.3l-.1.4.3-.1.2.1.1.1H22.3l-.1-.4-.2-.4h-.5zm.8.1zm1.2-.4zm.3.6l.1-.2-.1-.4-.1.1h-.2l-.4-.1h-.2c-.2 0-.3-.1-.5-.1l-.3.2.1.1.3-.1h.4l.2.1.2.1-.4.1.3.3V4h-.1l-.4-.1-.2.1-.2-.1.2.4.1.1v.7c0 .2-.3.4-.5.7-.3.2-.7.5-.9.8-.3.3-.3.7-.5.9l-.3.3h.1l.5-.4.4-.3.3.3.1.2.2-.3.1-.2.1-.1.2.3.1.1.1-.1.3-.3v.1l.1.2.2.1.7-.4c0-.1-.1-.2-.1-.4v-.1c0-.2.1-.6.2-1l.1-.2v-.8c0-.5-.2-.8-.3-.9zm.1 2.9l.1.3c.5 0 .6-.3.6-.6V6c-.2 0-.4-.2-.4-.3-.2.3-.3.6-.3.8zm.9-2.5v-.2l-.1-.2-.1.3c-.1.2-.1.4-.3.4V5.1l.4-.4.2-.2v-.2c0 .1-.1-.3-.1-.3zm.5-1.1l-.1-.1-.1-.3c0 .3-.1 1-.2 1.3 0 .1.1.3.1.6l.2-.4.1-.4v-.1c.1-.2 0-.5 0-.6zm.1-2.4c0 .3.1.9.1 1.4 0 .4 0 .7-.1.9 0 0 .1.2.1.4.1-.1.3-.8.3-1.5 0-.4-.1-.9-.4-1.2zm.2.1c.2.3.3.7.3 1.1 0 .8-.4 1.5-.4 1.5l.1.2.1-.2.3-.6.1-.3v-.2c0-.4-.2-1.1-.5-1.5zm.6 2.1l-.1-.2c-.1.5-.5 1.1-.5 1.2v.6l.2.1c.1-.1.4-.8.4-1.7zm-2.6 6.5l-.2-.5h-.1l-.3-.2-.2.2h-.1c.2.2.5.4.9.5zm0 .1l.5.8v-.2c0-.2-.1-.4-.2-.5-.1-.1-.3-.1-.3-.1zm.2-.1l.1-.3-.3-.1.2.4zm.1 0c.1.1.4.4.9.4-.3-.1-.5-.4-.6-.6l-.2-.1-.1.3zm1.8-2H26l-.4-.3.1.3zm0 .9c-.2.1-.4.1-.6.2l.2.3.4.3c.1-.3.1-.5 0-.8zm-.6.3c0 .2-.1.5-.1.5-.2 0-.4.1-.5.1.1.1.2.4.6.6 0-.2-.1-.4-.1-.6v-.1h.7c-.2-.1-.5-.4-.6-.5zm.6.9v-.2h-.5c.1.3.1.5.1.6v.1h-.4v.2c0 .3.1.3.2.7.1.3.6.8 1 1 .3.3.4.6.6.9l.1.3h.2c.3 0 .4-.5.4-.5v-.1c-.3-1.1-1.4-1.5-1.7-3zm-1.3-.5h.4c-.2-.1-.3-.4-.3-.5l-.1.2-.3.3h.3zm.5-.1l.1-.4v-.1h.1s.3 0 .6-.1c-.2-.1-.3-.2-.4-.3v.3s-.1 0-.3.1h-.3c-.2.1-.1.4.2.5zm.3-1.3v.1c.1.1.3.3.5.4v-.6h-.1l-.1.1h-.4c.1-.1.1 0 .1 0zm.9-.3v-.3l-.1-.3.4-.3v-.1l-.5-.1c.1.2.1.4.1.4l-.4.3.5.4zm-.2-1.2c.1 0 .4 0 .6.1l-.1-.2-.2-.3-.3.4c0-.1 0 0 0 0zm.3-.6c.2 0 .3-.2.4-.4h-.1L26 5h-.1l.3.3c-.1 0 0 0 0 0zm-.3-.4c.1-.1.3-.1.5-.1l-.4-.3c0 .1-.1.4-.1.4zM27.5.8c-.2.4-.8 1.6-1.1 1.8 0 .2 0 .4-.1.6.3-.3 1.2-1.4 1.2-2.4zm0-.1zm.2.6l-.1-.5c0 1.2-1.3 2.6-1.3 2.6l-.3.9c.2-.1.4-.4.7-.7l.1-.1s.9-1.2.9-2.2zm-.8 2.3c-.3.3-.5.6-.9.9l.2.1.6-.6c.3-.3.6-.6.7-.9-.1.1-.4.4-.6.5zm-.1 1.2c-.1-.1.9-.9.9-1.7V3c-.3.6-1.1 1.3-1.4 1.5l.3.2.2.1c-.1.3-.3.5-.4.6v.1l.6-.3c.3-.2.5-.4.6-.6-.2 0-.6.1-.8.2zm.4.7c.2-.2.4-.5.4-.7-.3.4-1 .7-1.1.8l.1.4h.1l.5-.5zm0 .6c-.1 0-.3-.1-.4-.1h-.2l-.4.4h.4c.3 0 .6-.1.6-.3.1.1 0 0 0 0zm.1.2c-.3.2-.9.2-1 .2v.7h.1l.2-.1c.1-.1.5-.4.7-.8zm-.5 1.2h.2c.2 0 .5.2.6.6l-.1.3s-.5.1-.5.5V9c.1.5.6.7.6 1.1 0 .2-.1.5-.2.6v-.1s.1-.1.2-.4l.1-.2-.1-.3c-.1-.2-.3-.4-.4-.7v-.1c0-.3.3-.5.3-.5l.1.1s-.3.2-.3.4V9c.1.2.3.5.4.7l.1.4-.1.3-.1.2.1-.1c.1-.1 0-.2.1-.4 0-.2-.2-.9-.3-1V9c0-.2.3-.5.3-.5l.1.1-.1.2-.1.2c.1.2.3.8.3 1l-.1.4-.3.2c.2 0 .4-.1.4-.4v-.1c-.1-.8-.2-.8-.2-1 0-.2.3-.5.3-1V8c0-.5-.4-.8-.9-.9l-.3.1-.1.1.1.2h-.1zm-.5-.2l-.3.1.5.4-.2-.5zm.1.6c-.2-.1-.4-.3-.6-.5V8c.1 0 .4-.1.6-.1zm-3.9 3.9c-.4 0-.8.1-.8.8l.2.5.1.1h-.1l-.1.1.1.1c.2.2.7.6.9.9l.1.3c0 .2-.2.4-.3.6-.1.2-.4.7-.6.8l-.2.2.1.3h-.1v-.2l-.1-.1-.2-.3-.1-.1H21l.3-.1h.1l.2.2-.1-.4-.2-.2h-.1l-.2.2-.1-.1.2-.1h.1l-.1-.1-.1-.1v.4l.2.8c.1.2.5.8.7.7.2 0 .4-.1.4-.3.1-.2.3-.5.3-.5l.2-.1.3-.3.4-.4.3-.2V14.9l-.2-.4-.1-.3V14c0-.5-.1-.6-.2-.9-.1-.2-.4-.3-.4-.3v-.1h.2v.1l.3.3c.1.2.2.3.2.8l.3.3.2.1c-.1-.3-.1-.7-.1-.9V13c-.1-.1-.2-.2-.4-.3l-.3-.1-.1-.2-.1-.3c-.2-.2-.4-.3-.6-.3zm-.2-.9c.1.1.6.3.7.6l.2.2v.1l.1.4v.1l.4.2.4.3c.1-.2.2-.4.2-.5l-.1-.5h.1s.1.4.1.6v.1c0 .1-.2.3-.2.6V13.4c0 .4 0 .8.3 1.2l.2.2.1.5c.1.2.3.7.5.9.3.2.3.5.3.7 0 .2 0 .3.1.5.2.2.2.3.2.5v.2c0 .1 0 .3.1.5s.2.4.2.5v.3c0 .2 0 .6-.4.6h-.1l-.3-.1h-.1l-.3.2v.2h-.1l.1-.2.3-.2H25l-.2.1-.2.3h-.1l.1-.3-.3.2.2.2c.2.2.5.3.8.3.2 0 .5.1.7.1h.2l.4-.3.1-.6.1-.5-.2-.9c0-.1-.1-.3-.1-.6s.1-.6.1-.7l-.3-.7-.1-.3v.1l-.2-.2-.2-.4c0-.2.1-.5.3-.7.1-.2.4-.9.4-1.1v-.1c0-.2-.3-.7-.3-.7l.1-.1s.3.5.3.8v.1c-.1.2-.3.9-.4 1.1-.1.2-.2.6-.2.7l.1.3.2.1.2-.1-.1-.1-.2-.2-.2-.3h.5l-.1-.2v-.1h.2V14.8h.2l-.1-.2v-.1h.2l-.1-.3v-.1h.2l-.2-.5h-.1.1s.8-.6.8-1.4c0-.8-1.5-2.1-1.5-3.5 0-.3 0-.5.1-.6l-.3.1c0 .2.1.7.1.7V9h-.1v.2c.3 1.5 1.4 1.9 1.4 2.9v.1s-.1.6-.5.6h-.1l-.2-.1-.1-.3c-.2-.3-.2-.6-.5-.9-.3-.3-.9-.8-1-1.1-.1-.3-.2-.4-.2-.7-.2 0-.3-.1-.5-.2.1.3.1.8.1.8v.1h-.1c-.5-.1-1-.6-1.1-.7l-.1.1-.5.5-.1.5c-.1-.1-.1.1-.1.1zM20.1 13h.2v-.2l-.1-.1-.1.3zm-.9-3.5l-.2.1h.1l.1-.1zm.7.5v-.1l-.1-.1h-.1v.8l.1.2v-.2l.1-.3V10zm.1.3v-.2.1l-.1.3v.1-.1c0-.1.1-.2.1-.2zm.8.5c-.2.1-.3.2-.4.2l-.3.1h-.2l-.1-.1-.1-.2-.1-.3v-.3l-.1-.5-.2-.1-.2.3.1.4.2.7.2.7c.1.2.2.4.2.5l.1.5.3.2.1-.2-.1-.3-.2-.3-.1-.2.1-.1c.1-.1.1-.2.3-.3.2-.1.3-.2.5-.2l.4-.1v-.1h-.1l-.3-.3zm0-.8l.3.3-.2.4h.4v.2c0 .1 0 .3.1.6.1-.2.4-.8.9-1l.1-.4v-.3l.1-.3h.1l-.1.3v.2l.4-.4.1-.1s.4.5.9.7l-.6-.9c-.5-.2-.8-.5-.8-.5h-.2v-.1h.3l.1-.1.3-.2v-.1h.2l.2.1c.2.1.4.2.5.2h.1l.2-.3.1-.3v-.1h.4l.3.1V7.2H25.6l-.1-.4h-.1l-.1-.1.1-.1.4-.3V6l-.1-.2V6l-.1.1.2-.5h.1l.1.1.2-.3-.3-.4-.1.1-.1.2v-.4h.2l.1-.3-.3-.1v-.9c0 .2-.1.4-.2.6-.2.2-.2.4-.6.8l-.5.5v.2c0 .1.2.4.4.4l.1.3c0 .3-.1.6-.6.7 0 0-.6.4-.8.4l-.5-.2-.1-.1-.4.4-.2-.2-.1-.2-.1.3-.3.3-.1.4v.2c0 .3.1.8.2 1v.1c0 .3-.3.7-.3.7v.1-.1c-.2-.1-.5-.2-.8-.2zm5-4.2zm-5.1 3.1c.4.6.7 1 .8 1.1.1-.1.3-.4.2-.6v-.1c-.1-.2-.2-.7-.2-1.1v-.3l.1-.3-.1-.2-.2-.2-.3.3-.4.3-.1.5c.1.2.1.4.2.6zM19 6.8l.2-.1.3.1c.3.2.3.5.4.7v.4l.5.3.1-.4H20.2l.1-.1.4-.4.1-.2-.3-.5c-.1-.1-.2-.1-.2-.4 0-.2-.1-.4-.1-.6-.2.2-.3.4-.3.6v.2l-.1-.1-.2-.3-.1.4v.1l.1.2-.1-.1h-.2c-.1-.1-.2-.1-.3.2zm-.7-.7l.3-.1h-.2l-.1.1zm.1-2.8l.2.6c0 .1.1.3.1.5v.1l-.2.8-.2.4.1.2h.2l.1-.4v-.3l.1-.1V5v.2s.2.2.2.4l.2.6.1.3.1-.5.1-.1v-.1l-.1-.3c-.1-.4-.2-.7-.2-1V4h-.1v-.5c0-.2.2-.4.2-.4l-.1-.2-.1-.1H19V4.1h-.1v-.5l-.1-.2-.2-.4h-.2v.3zm-.1-.5h.2l-.2-.1h-.1l.1.1zm7.4 13.4l.1.3.1.2v.1h-.1l-.1-.1-.1-.3c0-.2.1-.2.1-.2zm-2.9-5.3s.3.3.7.4c.4.1.5.2.6.4l.1.2h-.1v-.2c0-.1-.1-.2-.5-.3-.6-.2-.9-.4-.8-.5zm3.6 6.1v.1l-.1.3v.4l.2.4v.2c0 .2-.1.5-.1.6v.6l-.2.2-.1-.1.1-.1v-.1l-.1-.5c0-.2.1-.4.1-.6V18l-.1-.4c0-.2.1-.4.1-.4l.2-.2zm-2.6-9.8h.2l.2.1v-.2c.1-.2.2-.2.4-.3.4-.2.4-.2.4-.3l-.1-.2v-.1l.2-.4v-.3h-.2l-.2-.1v-.1l.1-.3.3-.4.1.1-.2.2-.1.2-.1.3.1.1.2-.1.1-.1v.5l-.2.4.1.2c0 .1 0 .2-.3.4s-.3.2-.4.3l-.1.2-.1.1-.2-.1h-.1c-.2.1-.4.4-.4.5h-.1c0-.2.2-.5.4-.6zm-1-2.3l-.1-.5-.2-.2h.1l.1.2.1.5zm.5 10.3l.1.1h-.2l-.2.2c-.1.1-.2.5-.4.6-.2.1-.2.2-.3.3h-.1v-.1l.3-.3.4-.6.2-.2-.1-.2h.1c0-.1 0 .1.2.2zm-8.8-4.8l-.5 2.9.5.5v-3.4zm-.3 3.6l-.4-.3-2.6.3h3zm.7.3h.1s3-.1 3.4-.1h.2l-.1-.1h-3.7l1.1-1 .1-.2-.2.1-1 1v-3.7l-.1.1V14l-.9-.9-.5-.2.2.4 1 .9h-.2-3.5 3.7l-1.1 1-.2.3.4-.2 1-1V19.5l.1-.2.2-5 .8 1.1.4.2-.1-.3-1.1-1zm3.8-.1l-.3.2h-3.3l.4.4 4-.6v-.1l-1-.1c.1 0 .2.2.2.2zm-3.8 5.2c0 .2-.1.3-.2.3l-.2-.3v-4.8l-.5.6.7 5.8h.1l.7-5.7-.6-.6v4.7zm-.6-5h-3.1c-.2 0-.3 0-.4-.2l.2-.2-1 .1v.1l3.8.6.5-.4zm.9-.4h3.4l-3-.4-.4.4zm-.4-3.8l.1.1v3.4l.6-.6-.7-3.7h-.1l-.1.9.2-.1zm-1.2 16.7c.2-.3.5-.6 1.1-.6v-.2h-1.6v.6l.5.2zm-1.2-.8h1.5v-.6h-1.5v.6zm.9-.7h1.4v-.5h-1.4v.5zm-.7-.6H14v-.6h-1.3l-.1.6zm-.3 2.6h1.1l.2-.5h-1.3v.5zm3.5.7h.7v-.6h-.3v.3l-.4.1v.2zm-1.7-3.3h1.3v-.6h-1.3v.6zm3.1 2.2h-1.3l.2.5h1.1V27zm-3.4.9h-.4v-.4h-.3v.6h.7v-.2zm.9-1.1c-.8 0-.8.6-.8 1v1.3h1.8v-1.3c-.1-.2-.1-1-1-1zm1.1 2.4h2.7l-.2-.9h-2.5v.9zm.8-1.1h1.7l-.1-.6h-1.6v.6zm-.5-.3c0-.2-.2-1.3-1.3-1.3s-1.3 1-1.3 1.3h.3c0-.2 0-.4.1-.6.1-.2.4-.4.8-.4.9 0 1 .8 1 1.1.1-.1.4-.1.4-.1zm1.7-5.8h-.5v.7h-.5V22H16v.6h-.7V22h-1.2v.7h-.7v-.6h-.8v.6H12V22h-.4v1h6.1v-1h.1zm1.3 7.9l-.2-.3v.1l-.1.1h-.4v.2l.1.2.2.2H19l.1.3c.2 0 .4-.1.5-.1 0 0-.5-.6-.5-.7zm-8.2.1l.1-.3h.1l-.1.3h-.1l-.3.4.3.5h.2l.5-.4h.2l.3-.3V30h.1V30.3l.2.2v.1l.1.1v.1l.1.1.2.1h.6v-.1l.2-.3-.1-.1v-.1l.2-.3.1-.2h-.5c-.2 0-.4.1-.6.1h-.2c-.2-.1-.4-.1-.6-.1h-.4c-.2 0-.4-.1-.5-.1h-.4c-.1.2-.3.4-.5.5-.2.2-.3.4-.5.6l.1.1h.1c.2 0 .4-.3.6-.4l.5-.6zm3.9-5.9H16v-.4h-1.2v.4zm.7.7h1.4v-.6h-1.4v.6zm-.6.6h1.3v-.5h-1.3v.5zm.7.7h1.5v-.6h-1.5v.6zm-1.6 0h1.4v-.6H14v.6zm.8.3c.5 0 .8.2 1 .5h.5v-.6h-1.5v.1zm-1.4-2.3h1.3v-.4h-1.3v.4zm4.8 6.6l.3-.2-.1-.1v.1h-.1l-.2.1-.1.1h.2zm-4.4-2.4h-2.5l-.2.9h2.7v-.9zm3.5-.9h.8L18 27h-.7v.4zm-5.1-.4h-.7l-.1.5h.8V27zm.7.6h-1.6l-.1.6h1.7v-.6zM11 29.4c.3.1.4.2.5.2h.4c.2 0 .4 0 .6.1h.2c.2 0 .3 0 .5-.1l.2-.1h.2c.5 0 1 0 1.5.1h3.5l.2-.1-.3-.2-.1-.1H11l-.2.1.2.1zm7.3.7l-.1-.2v-.1h-1.1l.2.2h.1l.1.1.1.2.1.1h.1v.1h.1v-.1l.1-.1h.1v-.1l.2-.1zm-2.8 0h.5c.1.3.3.6.6.6.1-.2.1-.4.1-.6l-.2-.2h-1.6l.1.1-.3.3v.1h-.1l-.1.1-.1-.1.1-.1.3-.4h-.7l-.3.1-.1.3v.1h.6c.1.2.3.2.6.2h.2c.1-.1.2-.3.4-.5zm3.4.4h-.4c-.1.1-.1.3-.3.3H18v-.2.1h-.2l-.1-.1h-.5l-.3-.3-.1-.1c0 .2 0 .4-.1.6h-.1c-.3 0-.5-.4-.6-.6H15.7l-.4.5h-.2c.4.1.8.3 1.2.3.4 0 .7-.3 1.2-.3s.6.1 1 .2c.2 0 .4.1.6.1h.4c-.5-.1-.6-.5-.6-.5zm-4.7 0h-.4l-.2.4v.1h-.4l-.2-.1h-.2l-.2-.1-.1-.1v-.1l-.1-.1-.2-.2-.3.3-.1.1-.6.3h-.3c-.1-.2-.3-.3-.3-.5-.2.1-.3.4-.6.4l.1.1c.3.1.3.1.6.1h.1c.2 0 .5 0 .6-.1.1 0 .5-.4.8-.4.3 0 .6.2.8.3.2.1.4.1.6.1.2 0 .7-.3 1.1-.4-.2.1-.5-.1-.5-.1zm3 0h.4l-.1-.1-.1-.2-.1-.1h-.1l-.3-.3h-.4l.2.2.2.1h.1v.1l.2.3zM13 26.2h-1.4l-.1.6H13v-.6zm3.2-2.5v.4h1.3l-.1-.4h-1.2zm1.5 1.1l-.1-.6H17v.6h.7zm0 .1h-1.4v.5h1.5l-.1-.5zm-1.2 1.9H18l-.1-.6h-1.5v.6zm.7-1.3v.6h.7l-.1-.6h-.6zm-4.9 0h-.6l-.1.6h.7v-.6zm-.4-.7h.7v-.6H12l-.1.6zm1.3.1h-1.4l-.1.5h1.4v-.5zm-1.5-1.7l.3.4h5.4l.4-.4h-6.1zm1.6.5h-1.2l-.1.4h1.3v-.4z"/></g></svg>